<?xml version="1.0" encoding="utf-8"?>
<!-- Generator: Adobe Illustrator 21.1.0, SVG Export Plug-In . SVG Version: 6.00 Build 0)  -->
<svg version="1.1"
	 id="svg2" inkscape:export-filename="/store/orion/projects/facoin/BC_Logo_icon32.png" inkscape:export-xdpi="11.25" inkscape:export-ydpi="11.25" inkscape:version="0.48.0 r9654" sodipodi:docname="facoin.svg" xmlns:cc="http://creativecommons.org/ns#" xmlns:dc="http://purl.org/dc/elements/1.1/" xmlns:inkscape="http://www.inkscape.org/namespaces/inkscape" xmlns:rdf="http://www.w3.org/1999/02/22-rdf-syntax-ns#" xmlns:sodipodi="http://sodipodi.sourceforge.net/DTD/sodipodi-0.dtd" xmlns:svg="http://www.w3.org/2000/svg"
	 xmlns="http://www.w3.org/2000/svg" xmlns:xlink="http://www.w3.org/1999/xlink" x="0px" y="0px" viewBox="0 0 256 256"
	 style="enable-background:new 0 0 256 256;" xml:space="preserve">
<style type="text/css">
	.st0{fill:url(#SVGID_1_);}
	.st1{fill:#FFFFFF;}
</style>
<sodipodi:namedview  bordercolor="#666666" borderopacity="1" gridtolerance="10" guidetolerance="10" id="namedview4" inkscape:current-layer="layer1" inkscape:cx="-54.927212" inkscape:cy="128" inkscape:pageopacity="0" inkscape:pageshadow="2" inkscape:window-height="972" inkscape:window-maximized="0" inkscape:window-width="1204" inkscape:window-x="238" inkscape:window-y="143" inkscape:zoom="1" objecttolerance="10" pagecolor="#ffffff" showgrid="false">
	</sodipodi:namedview>
<radialGradient id="SVGID_1_" cx="109.1314" cy="106.8512" r="121.6529" fx="20.2833" fy="23.7523" gradientUnits="userSpaceOnUse">
	<stop  offset="0" style="stop-color:#13BAEE"/>
	<stop  offset="0.2414" style="stop-color:#16B4EA"/>
	<stop  offset="0.553" style="stop-color:#1FA4DE"/>
	<stop  offset="0.9018" style="stop-color:#2D8ACA"/>
	<stop  offset="1" style="stop-color:#3281C4"/>
</radialGradient>
<circle class="st0" cx="128.1" cy="127.5" r="121.7"/>
<polygon class="st1" points="101.9,132.1 80.2,201.3 102.2,173.8 159.7,101.6 124.8,101.6 131.2,81 176.1,81 201.5,49.1 98.9,49.1 
	80.2,132.1 "/>
<g>
	<path class="st1" d="M89.4,216.8v-17.6c0-0.3,0.2-0.6,0.5-0.8c0.3-0.2,0.7-0.3,1.1-0.3h9.5c0.4,0,0.6,0.1,0.8,0.4
		c0.2,0.3,0.3,0.7,0.3,1.1c0,0.4-0.1,0.8-0.3,1.1c-0.2,0.3-0.5,0.5-0.8,0.5H93v5.4h4.1c0.3,0,0.6,0.1,0.8,0.4c0.2,0.3,0.3,0.6,0.3,1
		c0,0.4-0.1,0.7-0.3,0.9c-0.2,0.3-0.5,0.4-0.8,0.4H93v7.4c0,0.3-0.2,0.6-0.5,0.8c-0.4,0.2-0.8,0.3-1.2,0.3c-0.5,0-0.9-0.1-1.2-0.3
		C89.6,217.4,89.4,217.2,89.4,216.8z"/>
	<path class="st1" d="M99.1,216.4c0,0,0-0.1,0.1-0.3l5.2-17c0.1-0.3,0.4-0.6,0.8-0.8c0.4-0.2,0.9-0.3,1.4-0.3s1,0.1,1.5,0.3
		c0.4,0.2,0.7,0.5,0.8,0.9l5.2,17c0,0.1,0.1,0.2,0.1,0.3c0,0.4-0.2,0.7-0.7,1c-0.5,0.3-1,0.4-1.5,0.4c-0.7,0-1.1-0.2-1.2-0.7l-1-3.6
		H104l-1,3.6c-0.1,0.5-0.6,0.7-1.3,0.7c-0.6,0-1.2-0.1-1.7-0.4C99.4,217.2,99.1,216.8,99.1,216.4z M104.7,210.9h4.7l-2.4-8.3
		L104.7,210.9z"/>
	<path class="st1" d="M116.3,211.9v-7.6c0-2.1,0.6-3.7,1.7-4.7c1.2-1,2.7-1.5,4.5-1.5c1.9,0,3.4,0.5,4.6,1.4
		c1.2,0.9,1.8,2.2,1.8,3.7c0,0.7-0.1,1.1-0.4,1.4c-0.3,0.2-0.7,0.4-1.4,0.4c-1.2,0-1.7-0.4-1.8-1.1c0-0.2,0-0.4-0.1-0.6
		c0-0.2-0.1-0.4-0.2-0.7c-0.1-0.3-0.3-0.5-0.4-0.7c-0.2-0.2-0.5-0.4-0.8-0.5s-0.8-0.2-1.3-0.2c-1.9,0-2.8,1-2.8,3.1v7.6
		c0,2.1,1,3.1,2.9,3.1c0.6,0,1.1-0.1,1.4-0.3c0.4-0.2,0.7-0.4,0.8-0.8c0.2-0.3,0.3-0.6,0.4-0.9c0.1-0.3,0.1-0.6,0.1-1
		c0.1-0.7,0.6-1.1,1.7-1.1c0.6,0,1.1,0.1,1.4,0.4c0.3,0.2,0.4,0.7,0.4,1.4c0,1.6-0.6,2.9-1.8,3.9c-1.2,1-2.8,1.5-4.7,1.5
		c-1.9,0-3.4-0.5-4.5-1.5C116.9,215.6,116.3,214,116.3,211.9z"/>
	<path class="st1" d="M131.2,211.9v-7.6c0-2.1,0.6-3.7,1.7-4.7c1.1-1,2.7-1.5,4.6-1.5c1.9,0,3.5,0.5,4.6,1.5c1.2,1,1.7,2.6,1.7,4.7
		v7.6c0,2.1-0.6,3.7-1.7,4.7c-1.2,1-2.7,1.5-4.6,1.5c-1.9,0-3.5-0.5-4.6-1.5C131.7,215.6,131.2,214,131.2,211.9z M134.7,211.9
		c0,2.1,0.9,3.1,2.8,3.1c1.9,0,2.8-1,2.8-3.1v-7.6c0-2.1-0.9-3.1-2.8-3.1c-1.9,0-2.8,1-2.8,3.1V211.9z"/>
	<path class="st1" d="M146.9,216.8v-17.6c0-0.4,0.2-0.6,0.5-0.8c0.3-0.2,0.8-0.3,1.2-0.3c0.5,0,0.9,0.1,1.2,0.3
		c0.3,0.2,0.5,0.5,0.5,0.8v17.6c0,0.3-0.2,0.6-0.5,0.8c-0.4,0.2-0.8,0.3-1.2,0.3c-0.5,0-0.9-0.1-1.2-0.3
		C147,217.4,146.9,217.2,146.9,216.8z"/>
	<path class="st1" d="M153.6,216.8v-17.6c0-0.4,0.2-0.6,0.5-0.8c0.3-0.2,0.8-0.3,1.2-0.3c0.7,0,1.1,0.1,1.5,0.4s0.7,0.7,1.1,1.5
		l5.2,10.1v-10.9c0-0.4,0.2-0.6,0.5-0.8c0.3-0.2,0.8-0.3,1.2-0.3c0.5,0,0.9,0.1,1.2,0.3c0.3,0.2,0.5,0.5,0.5,0.8v17.6
		c0,0.3-0.2,0.6-0.5,0.8c-0.4,0.2-0.8,0.3-1.2,0.3c-1,0-1.6-0.4-2-1.1l-5.8-10.9v10.9c0,0.3-0.2,0.6-0.5,0.8
		c-0.4,0.2-0.8,0.3-1.2,0.3c-0.5,0-0.9-0.1-1.2-0.3C153.8,217.4,153.6,217.2,153.6,216.8z"/>
</g>
</svg>
